<?xml version="1.0" standalone="no"?>
<!DOCTYPE svg PUBLIC "-//W3C//DTD SVG 20010904//EN"
 "http://www.w3.org/TR/2001/REC-SVG-20010904/DTD/svg10.dtd">
<svg version="1.0" xmlns="http://www.w3.org/2000/svg"
 width="512.000000pt" height="512.000000pt" viewBox="0 0 512.000000 512.000000"
 preserveAspectRatio="xMidYMid meet">
<metadata>
Created by potrace 1.14, written by Peter Selinger 2001-2017
</metadata>
<g transform="translate(0.000000,512.000000) scale(0.100000,-0.100000)"
fill="#000000" stroke="none">
<path d="M2385 5029 c-348 -56 -642 -230 -848 -504 -99 -133 -199 -340 -223
-468 -33 -174 -40 -391 -15 -517 6 -30 13 -64 15 -76 9 -44 67 -206 92 -256
55 -111 126 -218 187 -284 21 -22 24 -31 14 -40 -12 -11 -733 -446 -752 -453
-5 -2 -32 -18 -60 -36 -166 -107 -252 -151 -314 -163 -226 -41 -389 -226 -397
-453 -5 -127 31 -229 114 -328 183 -215 511 -225 705 -22 60 63 101 134 121
213 7 29 19 52 27 54 8 1 93 18 189 38 96 19 189 38 205 40 17 3 69 14 118 25
48 10 87 15 87 11 0 -7 -26 -120 -55 -240 -2 -8 -11 -48 -20 -89 -9 -41 -18
-77 -20 -81 -2 -4 -6 -17 -8 -31 -3 -13 -21 -91 -40 -174 -20 -82 -38 -161
-41 -175 -3 -14 -21 -92 -41 -175 -19 -82 -37 -159 -39 -170 -3 -11 -9 -41
-15 -67 -6 -25 -9 -81 -7 -123 4 -62 11 -91 39 -150 134 -282 502 -341 711
-114 33 35 87 121 151 237 l100 181 195 0 195 0 99 -179 c55 -99 115 -199 135
-223 133 -164 381 -203 566 -89 93 58 171 171 194 282 l12 56 142 -1 c78 0
160 3 182 7 249 43 453 147 625 318 167 167 268 361 317 610 11 60 9 304 -4
373 -72 385 -328 701 -686 845 -144 58 -268 81 -432 78 l-110 -1 -113 67 c-63
38 -116 68 -118 68 -3 0 -18 10 -33 21 l-29 21 53 67 c117 144 197 306 247
498 39 153 47 363 18 519 -71 390 -293 704 -636 899 -69 40 -211 101 -254 110
-8 2 -42 10 -75 19 -129 33 -346 44 -470 25z"/>
</g>
</svg>
